Coordinates
version=1
nRows=16
nColumns=40
inDegrees=yes

Units are S.I. units (second, meters, Newtons, ...)
Angles are in degrees.

endheader
time	pelvis_tilt	pelvis_list	pelvis_rotation	pelvis_tx	pelvis_ty	pelvis_tz	hip_flexion_r	hip_adduction_r	hip_rotation_r	knee_angle_r	knee_angle_r_beta	ankle_angle_r	subtalar_angle_r	mtp_angle_r	hip_flexion_l	hip_adduction_l	hip_rotation_l	knee_angle_l	knee_angle_l_beta	ankle_angle_l	subtalar_angle_l	mtp_angle_l	lumbar_extension	lumbar_bending	lumbar_rotation	arm_flex_r	arm_add_r	arm_rot_r	elbow_flex_r	pro_sup_r	wrist_flex_r	wrist_dev_r	arm_flex_l	arm_add_l	arm_rot_l	elbow_flex_l	pro_sup_l	wrist_flex_l	wrist_dev_l
      1.81000000	     -2.51257726	     -3.45188999	      6.53906576	     -0.10132848	      0.88154779	     -1.43561295	     23.81681317	      2.07810319	    -16.44045767	    -24.23809086	     -0.42303449	      1.14477293	     -7.74227900	      5.67058542	     -0.46059580	      6.32315190	      3.27293550	    -41.59586868	     -0.72598486	      0.63421660	      9.53921802	     -3.69590486	     -1.00358274	      1.67268895	     -9.09825354	     -4.80985118	     -6.72718476	    -12.38412065	     22.63767979	     89.95437384	      0.00000000	      0.00000000	      1.78108289	     10.04032942	     20.75845096	     48.42324650	     89.95437384	      0.00000000	      0.00000000
      1.82000000	     -2.81831503	     -3.59297860	      6.43369664	     -0.09326095	      0.88170289	     -1.43395607	     23.68548331	      2.51298133	    -16.09760842	    -24.26656930	     -0.42353153	      1.16702321	     -8.12758343	      5.57754200	      0.76933470	      6.53052705	      2.96944770	    -43.60813473	     -0.76110553	     -1.40007282	     10.76091417	     -3.18260092	     -0.59832144	      1.79839644	     -8.99372417	     -4.84717938	     -6.77595043	    -12.11926413	     22.69424608	     89.95437384	      0.00000000	      0.00000000	      1.41254729	      9.86215475	     20.93366753	     47.90341628	     89.95437384	      0.00000000	      0.00000000
      1.83000000	     -2.76332794	     -3.58803853	      6.35723337	     -0.08493647	      0.88236514	     -1.43244710	     23.11092515	      2.75526070	    -15.96460583	    -24.36646999	     -0.42527513	      1.62049239	     -8.12659458	      5.43124546	      1.54317147	      6.70439142	      2.83867765	    -45.46459692	     -0.79350691	     -3.61260779	     11.43094689	     -2.72602952	     -0.56823416	      1.80651328	     -8.85669314	     -4.78597702	     -6.80549543	    -11.92690611	     22.62081002	     89.95437384	      0.00000000	      0.00000000	      1.19613892	      9.77109184	     20.91871371	     47.15440369	     89.95437384	      0.00000000	      0.00000000
      1.84000000	     -2.80501658	     -3.58592259	      6.29576640	     -0.07694931	      0.88278787	     -1.43090118	     22.60145408	      2.98632452	    -15.94333743	    -24.34609452	     -0.42491951	      2.01927200	     -8.03974071	      5.28094183	      2.51830032	      6.78416017	      2.51701488	    -47.37980197	     -0.82693354	     -5.77957565	     11.94347143	     -2.24340788	     -0.48077698	      1.80606019	     -8.69210863	     -4.78150569	     -6.84304676	    -11.65426914	     22.69564947	     89.95437384	      0.00000000	      0.00000000	      0.99598208	      9.66299541	     20.93812524	     46.43676901	     89.95437384	      0.00000000	      0.00000000
      1.85000000	     -2.78727670	     -3.55701545	      6.25784934	     -0.06916338	      0.88319489	     -1.42946616	     22.03616032	      3.17229339	    -15.93167688	    -24.36379572	     -0.42522845	      2.49175507	     -7.88930131	      5.11424935	      3.50257980	      6.84725330	      2.20764727	    -49.40673103	     -0.86231013	     -7.26496628	     12.34304415	     -1.84435646	     -0.49866498	      1.79729368	     -8.56022605	     -4.70974319	     -6.87153468	    -11.47083286	     22.83124166	     89.95437384	      0.00000000	      0.00000000	      0.81728981	      9.57203880	     20.95562315	     45.69122194	     89.95437384	      0.00000000	      0.00000000
      1.86000000	     -2.84343774	     -3.60959818	      6.25955221	     -0.06160044	      0.88339383	     -1.42806222	     21.55515972	      3.40790444	    -16.02370413	    -24.34869370	     -0.42496487	      2.99584746	     -7.66003782	      4.94738032	      4.68777268	      6.93451034	      1.77577319	    -51.55753406	     -0.89984872	     -8.45513440	     12.89613221	     -1.37366567	     -0.43864999	      1.86647009	     -8.41951825	     -4.67581952	     -6.94967733	    -11.16141569	     22.99429623	     89.95437384	      0.00000000	      0.00000000	      0.65981824	      9.45325885	     20.99013352	     44.96156312	     89.95437384	      0.00000000	      0.00000000
      1.87000000	     -2.65245807	     -3.35118078	      6.08696704	     -0.05408388	      0.88397595	     -1.42662970	     20.83634633	      3.33449289	    -15.97252529	    -24.47245908	     -0.42712499	      3.33771287	     -7.44470447	      4.79622427	      5.47013387	      6.74576989	      1.71156047	    -53.54226385	     -0.93448879	     -9.04970289	     12.99167069	     -1.18105896	     -0.74292201	      1.63017251	     -8.06565969	     -4.53737656	     -6.97910630	    -10.98403422	     23.17856509	     89.95437384	      0.00000000	      0.00000000	      0.51562805	      9.38018154	     20.94903864	     44.37160351	     89.95437384	      0.00000000	      0.00000000
      1.88000000	     -2.83420953	     -3.65760579	      6.23719322	     -0.04701695	      0.88380479	     -1.42545038	     20.53891021	      3.78616186	    -16.16338969	    -24.43126997	     -0.42640610	      4.07902548	     -7.14886788	      4.60122971	      7.10435107	      7.07441039	      1.26265838	    -55.91333043	     -0.97587171	     -9.68820344	     14.31873057	     -0.50411576	     -0.53782492	      1.99048417	     -8.01839428	     -4.50041378	     -7.13315532	    -10.65942403	     23.46388307	     89.95437384	      0.00000000	      0.00000000	      0.46152366	      9.24177389	     20.84116876	     43.45633029	     89.95437384	      0.00000000	      0.00000000
      1.89000000	     -2.65426488	     -3.65936338	      6.17526773	     -0.03981670	      0.88423853	     -1.42423053	     19.87063894	      3.97341746	    -16.05785521	    -24.56768636	     -0.42878702	      4.64303419	     -6.96843382	      4.44682206	      8.09155156	      7.17852397	      1.25988255	    -57.90939175	     -1.01070955	     -9.60342156	     15.30676766	     -0.09424920	     -0.78547459	      2.05058503	     -7.77729627	     -4.27226351	     -7.25431772	    -10.32571558	     23.51481601	     89.95437384	      0.00000000	      0.00000000	      0.41130450	      9.14701750	     20.72214373	     42.63314721	     89.95437384	      0.00000000	      0.00000000
      1.90000000	     -2.42192329	     -3.42094911	      5.97786245	     -0.03271825	      0.88481216	     -1.42295529	     19.11931176	      3.90354702	    -16.01621739	    -24.65607734	     -0.43032973	      4.93420108	     -6.83019090	      4.33269434	      8.92460687	      7.04458643	      1.54651217	    -59.64969704	     -1.04108361	     -9.41229964	     15.70972269	      0.05912880	     -1.17112402	      1.85524585	     -7.34589432	     -4.05860325	     -7.32765882	    -10.16477203	     23.70641475	     89.95437384	      0.00000000	      0.00000000	      0.28069723	      9.04472407	     20.67187834	     42.13371733	     89.95437384	      0.00000000	      0.00000000
      1.91000000	     -2.73103319	     -3.61257550	      5.95217847	     -0.02618878	      0.88441537	     -1.42203814	     19.08111666	      4.22512370	    -15.87545961	    -24.81317173	     -0.43307154	      5.57909402	     -6.60437425	      4.26497113	     10.77654484	      7.17291968	      1.53542826	    -62.01371714	     -1.08234355	     -6.57379273	     16.55038371	     15.26415851	     -0.86787554	      2.11127195	     -7.11384164	     -3.98394350	     -7.59530421	     -9.73359119	     24.08337213	     89.95437384	      0.00000000	      0.00000000	      0.25140991	      8.86621089	     20.60713349	     41.21634817	     89.95437384	      0.00000000	      0.00000000
      1.92000000	     -2.47893765	     -3.33856984	      5.73428015	     -0.01915079	      0.88514341	     -1.42094446	     18.29100336	      4.10368069	    -15.85725606	    -24.86066240	     -0.43390041	      5.82065986	     -6.51005256	      4.16401490	     11.55114047	      6.99779584	      1.89358105	    -63.37235724	     -1.10605629	     -6.34484744	     16.67561706	     15.04619258	     -1.26873815	      1.87726030	     -6.68859376	     -3.70089273	     -7.68656709	     -9.63270692	     24.21530862	     89.95437384	      0.00000000	      0.00000000	      0.06631442	      8.77598615	     20.53921502	     40.75463233	     89.95437384	      0.00000000	      0.00000000
      1.93000000	     -2.24466501	     -3.28880050	      5.58241533	     -0.01237461	      0.88579278	     -1.41977794	     17.49977598	      4.26725724	    -15.69499725	    -24.79064445	     -0.43267837	      6.32193510	     -6.38300835	      4.03403603	     12.48242073	      7.10586183	      2.22457901	    -64.74159366	     -1.12995397	     -5.47527499	     17.53017365	     14.94961476	     -1.61779420	      1.88164464	     -6.33863940	     -3.33558730	     -7.79601840	     -9.49600202	     24.27804750	     89.95437384	      0.00000000	      0.00000000	      0.03139257	      8.69838512	     20.44071078	     39.97714036	     89.95437384	      0.00000000	      0.00000000
      1.94000000	     -2.42222363	     -3.58977787	      5.33990509	     -0.00560456	      0.88573770	     -1.41850504	     17.16575796	      4.86528439	    -15.21459975	    -24.62617102	     -0.42980777	      6.72898772	     -6.24716987	      3.80552969	     13.89718822	      7.53250667	      2.42634122	    -66.13820735	     -1.15432948	     -3.72330436	     18.01949916	     15.52650650	     -1.41770134	      2.25528592	     -5.88754314	     -3.26757439	     -8.06603570	     -9.17701265	     24.74200860	     89.95437384	      0.00000000	      0.00000000	     -0.08482210	      8.51718090	     20.28947916	     39.15270254	     89.95437384	      0.00000000	      0.00000000
      1.95000000	     -2.27398383	     -3.43676097	      5.16678099	      0.00120621	      0.88643543	     -1.41757197	     16.42554053	      4.88977948	    -15.04101797	    -24.51761632	     -0.42791313	      7.12717372	     -6.15581889	      3.68131523	     14.77789680	      7.41590781	      2.63517781	    -67.04835469	     -1.17021455	     -2.51576381	     18.20519914	     15.48605793	     -1.64879306	      2.14434044	     -5.56000226	     -2.95272827	     -8.17652245	     -9.12403697	     24.89340297	     89.95437384	      0.00000000	      0.00000000	     -0.21465292	      8.42468564	     20.23026107	     38.40456927	     89.95437384	      0.00000000	      0.00000000
      1.96000000	     -2.18255139	     -3.34095681	      4.95654308	      0.00799902	      0.88704406	     -1.41664384	     15.71549268	      4.95786507	    -14.92890562	    -24.32210695	     -0.42450085	      7.43988569	     -5.95434758	      3.53940592	     15.71627655	      7.40058494	      2.92634961	    -67.82854615	     -1.18383146	     -1.02420054	     18.26062306	     15.44806703	     -1.79473767	      2.09820039	     -5.20258907	     -2.67723097	     -8.32220961	     -9.11924474	     25.08939942	     89.95437384	      0.00000000	      0.00000000	     -0.38792181	      8.33541899	     20.12571691	     37.67420555	     89.95437384	      0.00000000	      0.00000000
